<svg xmlns="http://www.w3.org/2000/svg" version="1.1" xmlns:xlink="http://www.w3.org/1999/xlink" viewBox="0 0 200 200"><rect width="200" height="200" fill="url('#gradient')"></rect><defs><linearGradient id="gradient" gradientTransform="rotate(45 0.5 0.5)"><stop offset="0%" stop-color="#ffffff"></stop><stop offset="100%" stop-color="#ffffff"></stop></linearGradient></defs><g><g fill="#00efe3" transform="matrix(2.647895417325097,0,0,2.647895417325097,7.8796828693998435,113.44119392861376)" stroke="#5bcad4" stroke-width="0.15"><path d="M12.71-7.60L12.71-1.76Q11.92-0.88 10.40-0.34Q8.88 0.20 7.06 0.20L7.06 0.20Q4.27 0.20 2.60-1.51Q0.93-3.22 0.81-6.27L0.81-6.27L0.80-7.50Q0.80-9.60 1.54-11.17Q2.29-12.73 3.67-13.58Q5.05-14.42 6.87-14.42L6.87-14.42Q9.52-14.42 10.99-13.21Q12.46-11.99 12.71-9.58L12.71-9.58L9.40-9.58Q9.23-10.77 8.64-11.28Q8.06-11.79 6.98-11.79L6.98-11.79Q5.69-11.79 4.99-10.69Q4.29-9.60 4.28-7.57L4.28-7.57L4.28-6.71Q4.28-4.58 5.00-3.51Q5.73-2.44 7.29-2.44L7.29-2.44Q8.63-2.44 9.29-3.04L9.29-3.04L9.29-5.24L6.90-5.24L6.90-7.60L12.71-7.60ZM14.15-4.82L14.14-5.38Q14.14-6.96 14.76-8.20Q15.37-9.43 16.52-10.10Q17.68-10.76 19.23-10.76L19.23-10.76Q21.60-10.76 22.97-9.29Q24.34-7.82 24.34-5.29L24.34-5.29L24.34-5.18Q24.34-2.71 22.96-1.25Q21.59 0.20 19.25 0.20L19.25 0.20Q16.99 0.20 15.63-1.16Q14.26-2.51 14.15-4.82L14.15-4.82ZM17.44-5.77L17.43-5.18Q17.43-3.71 17.89-3.03Q18.35-2.34 19.25-2.34L19.25-2.34Q21.01-2.34 21.04-5.05L21.04-5.05L21.04-5.38Q21.04-8.22 19.23-8.22L19.23-8.22Q17.58-8.22 17.44-5.77L17.44-5.77ZM37.10-14.22L37.10-11.57L32.83-11.57L32.83 0L29.40 0L29.40-11.57L25.21-11.57L25.21-14.22L37.10-14.22ZM40.15-10.57L41.82-4.61L43.57-10.57L47.10-10.57L42.79 1.77L42.61 2.22Q41.69 4.27 39.37 4.27L39.37 4.27Q38.72 4.27 38.01 4.07L38.01 4.07L38.01 1.72L38.44 1.72Q39.13 1.72 39.50 1.52Q39.86 1.32 40.04 0.80L40.04 0.80L40.30 0.10L36.63-10.57L40.15-10.57ZM57.76-5.36L57.76-5.21Q57.76-2.74 56.66-1.27Q55.55 0.20 53.66 0.20L53.66 0.20Q52.21 0.20 51.27-0.87L51.27-0.87L51.27 4.06L47.98 4.06L47.98-10.57L51.05-10.57L51.15-9.59Q52.10-10.76 53.64-10.76L53.64-10.76Q55.60-10.76 56.68-9.32Q57.76-7.88 57.76-5.36L57.76-5.36ZM54.47-5.06L54.47-5.41Q54.47-8.22 52.83-8.22L52.83-8.22Q51.66-8.22 51.27-7.38L51.27-7.38L51.27-3.22Q51.70-2.34 52.85-2.34L52.85-2.34Q54.42-2.34 54.47-5.06L54.47-5.06ZM64.33 0.20L64.33 0.20Q61.89 0.20 60.39-1.25Q58.89-2.71 58.89-5.03L58.89-5.03L58.89-5.30Q58.89-6.92 59.49-8.16Q60.09-9.40 61.24-10.08Q62.39-10.76 63.97-10.76L63.97-10.76Q66.20-10.76 67.49-9.38Q68.78-8.00 68.78-5.53L68.78-5.53L68.78-4.25L62.24-4.25Q62.41-3.36 63.01-2.85Q63.60-2.34 64.55-2.34L64.55-2.34Q66.11-2.34 66.99-3.44L66.99-3.44L68.50-1.66Q67.88-0.81 66.75-0.31Q65.63 0.20 64.33 0.20ZM63.96-8.22L63.96-8.22Q62.51-8.22 62.24-6.31L62.24-6.31L65.56-6.31L65.56-6.56Q65.58-7.35 65.16-7.79Q64.74-8.22 63.96-8.22Z"></path></g></g></svg>